<?xml version="1.0" encoding="UTF-8"?>
<svg id="Calque_2" data-name="Calque 2" xmlns="http://www.w3.org/2000/svg" viewBox="0 0 100 101.06">
  <defs>
    <style>
      .cls-1 {
        fill: #3370ff;
      }

      .cls-1, .cls-2 {
        stroke-width: 0px;
      }

      .cls-2 {
        fill: #fb3;
      }
    </style>
  </defs>
  <g id="Calque_1-2" data-name="Calque 1">
    <g>
      <path class="cls-2" d="m25,0c13.81,0,25,11.19,25,25H0C0,11.19,11.19,0,25,0Z"/>
      <path class="cls-2" d="m75,51.06c13.81,0,25,11.19,25,25h-50c0-13.81,11.19-25,25-25Z"/>
      <g>
        <path class="cls-1" d="m75,101.06h25v-25c0,13.81-11.19,25-25,25Z"/>
        <path class="cls-1" d="m50,76.06H0v25h75c-13.81,0-25-11.19-25-25Z"/>
      </g>
      <g>
        <path class="cls-1" d="m0,25v25h25C11.19,50,0,38.81,0,25Z"/>
        <path class="cls-1" d="m50,25h0c0,13.81-11.19,25-25,25h75v-25h-50Z"/>
      </g>
    </g>
  </g>
</svg>